<svg width="33" height="33" viewBox="0 0 33 33" fill="none" xmlns="http://www.w3.org/2000/svg">
<g clip-path="url(#clip0_143_385)">
<path d="M1.22058 5.92114H5.86764L8.98117 21.4772C9.08741 22.012 9.37839 22.4925 9.80317 22.8345C10.228 23.1764 10.7595 23.3581 11.3047 23.3476H22.5971C23.1423 23.3581 23.6738 23.1764 24.0986 22.8345C24.5234 22.4925 24.8143 22.012 24.9206 21.4772L26.7794 11.73H7.0294M11.6765 29.1564C11.6765 29.7981 11.1563 30.3182 10.5147 30.3182C9.87307 30.3182 9.35293 29.7981 9.35293 29.1564C9.35293 28.5148 9.87307 27.9947 10.5147 27.9947C11.1563 27.9947 11.6765 28.5148 11.6765 29.1564ZM24.4559 29.1564C24.4559 29.7981 23.9357 30.3182 23.2941 30.3182C22.6525 30.3182 22.1323 29.7981 22.1323 29.1564C22.1323 28.5148 22.6525 27.9947 23.2941 27.9947C23.9357 27.9947 24.4559 28.5148 24.4559 29.1564Z" stroke="#1E1E1E" stroke-width="4" stroke-linecap="round" stroke-linejoin="round"/>
</g>
<rect x="17" width="16" height="16" rx="8" fill="#B3261E"/>
<path d="M25.999 4.15283V12H24.7046V5.68896L22.7871 6.33887V5.27002L25.8433 4.15283H25.999Z" fill="white"/>
<defs>
<clipPath id="clip0_143_385">
<rect width="27.8824" height="27.8824" fill="white" transform="translate(0.0588379 4.75928)"/>
</clipPath>
</defs>
</svg>
