<svg width="52" height="52" viewBox="0 0 52 52" fill="none" xmlns="http://www.w3.org/2000/svg">
<path d="M26 4.33341C14.0338 4.33341 4.33335 14.0339 4.33335 26.0001C4.33335 37.9663 14.0338 47.6667 26 47.6667C37.9662 47.6667 47.6667 37.9663 47.6667 26.0001C47.6667 14.0339 37.9662 4.33341 26 4.33341Z" fill="#65558F"/>
<path d="M26 17.3334L17.3334 26.0001L26 34.6667" fill="#65558F"/>
<path d="M26 17.3334L17.3334 26.0001M17.3334 26.0001L26 34.6667M17.3334 26.0001H34.6667M4.33335 26.0001C4.33335 14.0339 14.0338 4.33341 26 4.33341C37.9662 4.33341 47.6667 14.0339 47.6667 26.0001C47.6667 37.9663 37.9662 47.6667 26 47.6667C14.0338 47.6667 4.33335 37.9663 4.33335 26.0001Z" stroke="#E6E0F2" stroke-width="1.5" stroke-linecap="round" stroke-linejoin="round"/>
</svg>
