<svg width="52" height="52" viewBox="0 0 52 52" fill="none" xmlns="http://www.w3.org/2000/svg">
<path d="M26 47.6666C14.0338 47.6666 4.33335 37.9661 4.33335 25.9999C4.33335 14.0337 14.0338 4.33325 26 4.33325C37.9662 4.33325 47.6667 14.0337 47.6667 25.9999C47.6667 37.9661 37.9662 47.6666 26 47.6666Z" fill="#D6C9EA"/>
<path d="M26 34.6666L17.3334 25.9999L26 17.3333" fill="#D6C9EA"/>
<path d="M26 34.6666L17.3334 25.9999M17.3334 25.9999L26 17.3333M17.3334 25.9999H34.6667M4.33335 25.9999C4.33335 37.9661 14.0338 47.6666 26 47.6666C37.9662 47.6666 47.6667 37.9661 47.6667 25.9999C47.6667 14.0337 37.9662 4.33325 26 4.33325C14.0338 4.33325 4.33335 14.0337 4.33335 25.9999Z" stroke="#C0BCD0" stroke-width="1.5" stroke-linecap="round" stroke-linejoin="round"/>
</svg>
