<svg width="52" height="52" viewBox="0 0 52 52" fill="none" xmlns="http://www.w3.org/2000/svg">
<path d="M26.0001 4.3334C37.9663 4.3334 47.6667 14.0339 47.6667 26.0001C47.6667 37.9663 37.9663 47.6667 26.0001 47.6667C14.0339 47.6667 4.3334 37.9663 4.3334 26.0001C4.3334 14.0339 14.0339 4.3334 26.0001 4.3334Z" fill="#D6C9EA"/>
<path d="M25.9999 17.3334L34.6665 26.0001L25.9999 34.6667" fill="#D6C9EA"/>
<path d="M26.0001 17.3334L34.6667 26.0001M34.6667 26.0001L26.0001 34.6667M34.6667 26.0001L17.3334 26.0001M47.6667 26.0001C47.6667 14.0339 37.9663 4.3334 26.0001 4.3334C14.0339 4.3334 4.3334 14.0339 4.3334 26.0001C4.3334 37.9663 14.0339 47.6667 26.0001 47.6667C37.9663 47.6667 47.6667 37.9663 47.6667 26.0001Z" stroke="#C0BCD0" stroke-width="1.5" stroke-linecap="round" stroke-linejoin="round"/>
</svg>
