<svg width="46" height="46" viewBox="0 0 46 46" fill="none" xmlns="http://www.w3.org/2000/svg">
<path d="M22.9999 3.83341C33.5854 3.83341 42.1666 12.4146 42.1666 23.0001C42.1666 33.5855 33.5854 42.1667 22.9999 42.1667C12.4145 42.1667 3.83325 33.5855 3.83325 23.0001C3.83325 12.4146 12.4145 3.83341 22.9999 3.83341Z" fill="#D6C9EA"/>
<path d="M22.9999 15.3334L30.6666 23.0001L22.9999 30.6667" fill="#D6C9EA"/>
<path d="M22.9999 15.3334L30.6666 23.0001M30.6666 23.0001L22.9999 30.6667M30.6666 23.0001L15.3333 23.0001M42.1666 23.0001C42.1666 12.4146 33.5854 3.83341 22.9999 3.83341C12.4145 3.83341 3.83325 12.4146 3.83325 23.0001C3.83325 33.5855 12.4145 42.1667 22.9999 42.1667C33.5854 42.1667 42.1666 33.5855 42.1666 23.0001Z" stroke="#C0BCD0" stroke-width="1.5" stroke-linecap="round" stroke-linejoin="round"/>
</svg>
