<svg width="52" height="52" viewBox="0 0 52 52" fill="none" xmlns="http://www.w3.org/2000/svg">
<path d="M26 47.6666C37.9662 47.6666 47.6666 37.9661 47.6666 25.9999C47.6666 14.0337 37.9662 4.33325 26 4.33325C14.0338 4.33325 4.33331 14.0337 4.33331 25.9999C4.33331 37.9661 14.0338 47.6666 26 47.6666Z" fill="#65558F"/>
<path d="M26 34.6666L34.6666 25.9999L26 17.3333" fill="#65558F"/>
<path d="M26 34.6666L34.6666 25.9999M34.6666 25.9999L26 17.3333M34.6666 25.9999H17.3333M47.6666 25.9999C47.6666 37.9661 37.9662 47.6666 26 47.6666C14.0338 47.6666 4.33331 37.9661 4.33331 25.9999C4.33331 14.0337 14.0338 4.33325 26 4.33325C37.9662 4.33325 47.6666 14.0337 47.6666 25.9999Z" stroke="#E6E0F2" stroke-width="1.5" stroke-linecap="round" stroke-linejoin="round"/>
</svg>
