<svg width="28" height="29" viewBox="0 0 28 29" fill="none" xmlns="http://www.w3.org/2000/svg">
<g clip-path="url(#clip0_83_2526)">
<path d="M1.22058 1.92114H5.86764L8.98117 17.4772C9.08741 18.012 9.37839 18.4925 9.80317 18.8345C10.228 19.1764 10.7595 19.3581 11.3047 19.3476H22.5971C23.1423 19.3581 23.6738 19.1764 24.0986 18.8345C24.5234 18.4925 24.8143 18.012 24.9206 17.4772L26.7794 7.72997H7.0294M11.6765 25.1564C11.6765 25.7981 11.1563 26.3182 10.5147 26.3182C9.87307 26.3182 9.35293 25.7981 9.35293 25.1564C9.35293 24.5148 9.87307 23.9947 10.5147 23.9947C11.1563 23.9947 11.6765 24.5148 11.6765 25.1564ZM24.4559 25.1564C24.4559 25.7981 23.9357 26.3182 23.2941 26.3182C22.6525 26.3182 22.1323 25.7981 22.1323 25.1564C22.1323 24.5148 22.6525 23.9947 23.2941 23.9947C23.9357 23.9947 24.4559 24.5148 24.4559 25.1564Z" stroke="#1E1E1E" stroke-width="4" stroke-linecap="round" stroke-linejoin="round"/>
</g>
<defs>
<clipPath id="clip0_83_2526">
<rect width="27.8824" height="27.8824" fill="white" transform="translate(0.0588379 0.759277)"/>
</clipPath>
</defs>
</svg>
